<svg width="180" height="180" viewBox="0 0 180 180" fill="none" xmlns="http://www.w3.org/2000/svg">
<path d="M0 90C0 15.885 15.885 0 90 0C164.115 0 180 15.885 180 90C180 164.115 164.115 180 90 180C15.885 180 0 164.115 0 90Z" fill="url(#paint0_linear)"/>
<path d="M58.3273 120C76.4862 120 87.4864 108.691 87.4864 89.9414C87.4864 71.25 76.4862 60 58.5019 60H37.2V120H58.3273ZM49.8007 109.131V70.8691H57.8326C69.0073 70.8691 74.9148 76.6113 74.9148 89.9414C74.9148 103.33 69.0073 109.131 57.8035 109.131H49.8007Z" fill="#FEFEFE"/>
<path d="M96.8205 120H122.284C135.67 120 142.8 112.969 142.8 103.418C142.8 94.541 136.485 89.1797 129.705 88.8574V88.2715C135.903 86.8652 140.472 82.4414 140.472 75.3809C140.472 66.3867 133.837 60 120.683 60H96.8205V120ZM109.421 109.629V93.6914H119.985C126.038 93.6914 129.792 97.207 129.792 102.158C129.792 106.67 126.736 109.629 119.694 109.629H109.421ZM109.421 85.1074V70.2539H118.995C124.583 70.2539 127.755 73.1543 127.755 77.4902C127.755 82.2363 123.913 85.1074 118.763 85.1074H109.421Z" fill="#FEFEFE"/>
<defs>
<linearGradient id="paint0_linear" x1="90" y1="0" x2="90" y2="180" gradientUnits="userSpaceOnUse">
<stop stop-color="#00C2FF"/>
<stop offset="0.682292" stop-color="#0066FF"/>
<stop offset="1" stop-color="#001AFF"/>
</linearGradient>
</defs>
</svg>
